<?xml version="1.0" encoding="UTF-8" standalone="no"?>
<!-- License Agreement at http://iconmonstr.com/license/ -->

<svg
   xmlns:dc="http://purl.org/dc/elements/1.1/"
   xmlns:cc="http://creativecommons.org/ns#"
   xmlns:rdf="http://www.w3.org/1999/02/22-rdf-syntax-ns#"
   xmlns:svg="http://www.w3.org/2000/svg"
   xmlns="http://www.w3.org/2000/svg"
   xmlns:sodipodi="http://sodipodi.sourceforge.net/DTD/sodipodi-0.dtd"
   xmlns:inkscape="http://www.inkscape.org/namespaces/inkscape"
   version="1.1"
   x="0px"
   y="0px"
   width="661.03479"
   height="661.07623"
   viewBox="0 0 661.03479 661.07623"
   enable-background="new 0 0 512 512"
   xml:space="preserve"
   id="svg2"
   inkscape:version="0.48.4 r9939"
   sodipodi:docname="pen.svg"
   inkscape:export-filename="/home/vveitas/repos/fac/vveitas/vienna2015/presentation/images/icons/comment.png"
   inkscape:export-xdpi="13.64"
   inkscape:export-ydpi="13.64"><metadata
     id="metadata9"><rdf:RDF><cc:Work
         rdf:about=""><dc:format>image/svg+xml</dc:format><dc:type
           rdf:resource="http://purl.org/dc/dcmitype/StillImage" /><dc:title></dc:title></cc:Work></rdf:RDF></metadata><defs
     id="defs7" /><sodipodi:namedview
     pagecolor="#ffffff"
     bordercolor="#666666"
     borderopacity="1"
     objecttolerance="10"
     gridtolerance="10"
     guidetolerance="10"
     inkscape:pageopacity="0"
     inkscape:pageshadow="2"
     inkscape:window-width="1873"
     inkscape:window-height="1056"
     id="namedview5"
     showgrid="false"
     fit-margin-top="0"
     fit-margin-left="0"
     fit-margin-right="0"
     fit-margin-bottom="0"
     inkscape:zoom="0.921875"
     inkscape:cx="-159.25295"
     inkscape:cy="270.02259"
     inkscape:window-x="1127"
     inkscape:window-y="333"
     inkscape:window-maximized="1"
     inkscape:current-layer="layer1" /><g
     inkscape:groupmode="layer"
     id="layer1"
     inkscape:label="Circle"
     transform="translate(6.1784133,4.4309977)"><path
       sodipodi:type="arc"
       style="fill:#ffffff;fill-opacity:1;stroke:#000000;stroke-width:33.67210006999999905;stroke-miterlimit:4;stroke-opacity:1;stroke-dasharray:none"
       id="path2986"
       sodipodi:cx="255.80487"
       sodipodi:cy="241.23802"
       sodipodi:rx="255.03784"
       sodipodi:ry="241.61479"
       d="m 510.84271,241.23802 c 0,133.44017 -114.18433,241.61479 -255.03784,241.61479 -140.85351,0 -255.03784119,-108.17462 -255.03784119,-241.61479 0,-133.44016 114.18433119,-241.61479002 255.03784119,-241.61479002 140.85351,0 255.03784,108.17463002 255.03784,241.61479002 z"
       transform="matrix(1.2136391,0,0,1.2811493,13.884191,17.0452)"
       inkscape:export-xdpi="20.457142"
       inkscape:export-ydpi="20.457142"
       inkscape:export-filename="/home/vveitas/repos/fac/vveitas/vienna2015/presentation/images/icons/comment.png" /></g><g
     inkscape:groupmode="layer"
     id="layer2"
     inkscape:label="Pen"
     transform="translate(6.1784133,4.4309977)"><path
       id="pen-12-icon"
       d="m 336.7802,349.24191 c 19.932,-1.059 49.064,-6.658 71.861,-19.371 16.539,-25.375 27.48,-46.08 38.24,-68.66 -14.793,1.1 -31.838,-0.15 -47.047,-4.412 18.357,-3.139 41.402,-9.693 58.83,-20.873 21.598,-30.621 37.562,-79.977 43.029,-110.365 -49.416,-0.822 -95.709,15.279 -126.986,35.436 -10.561,12.021 -19.707,41.012 -21.869,56.357 -4.771,-11.078 -8.238,-28.83 -4.168,-43.643 -25.072,13.16 -47.012,28.197 -71.822,49.09 -12.361,26.23 -14.328,56.477 -13.189,73.416 -6.734,-9.5 -15.744,-27.979 -14.469,-48.225 -44.547,42.99 -75.271,99.285 -46.121,160.066 32.311,-33.328 69.457,-64.943 92.061,-79.638 -52.2,59.638 -100.866,138.138 -137.298,209.111 l 43.049,-13.488 c 18.633,-33.984 35.383,-63.234 50.428,-84.201 55.525,7.264 104.799,-37.227 138.037,-82.316 -13.242,3.259 -38.635,-1.001 -52.566,-8.284 z"
       inkscape:connector-curvature="0" /></g></svg>