<?xml version="1.0" encoding="UTF-8" standalone="no"?>
<!-- Created by diasvg.py -->

<svg
   xmlns:dc="http://purl.org/dc/elements/1.1/"
   xmlns:cc="http://creativecommons.org/ns#"
   xmlns:rdf="http://www.w3.org/1999/02/22-rdf-syntax-ns#"
   xmlns:svg="http://www.w3.org/2000/svg"
   xmlns="http://www.w3.org/2000/svg"
   xmlns:sodipodi="http://sodipodi.sourceforge.net/DTD/sodipodi-0.dtd"
   xmlns:inkscape="http://www.inkscape.org/namespaces/inkscape"
   width="1715.4103"
   height="923.04706"
   viewBox="6.106 -5.345 53.894217 21.247418"
   id="svg2"
   version="1.1"
   inkscape:version="0.48.4 r9939"
   sodipodi:docname="scale_1.svg">
  <metadata
     id="metadata168">
    <rdf:RDF>
      <cc:Work
         rdf:about="">
        <dc:format>image/svg+xml</dc:format>
        <dc:type
           rdf:resource="http://purl.org/dc/dcmitype/StillImage" />
      </cc:Work>
    </rdf:RDF>
  </metadata>
  <defs
     id="defs166" />
  <sodipodi:namedview
     pagecolor="#ffffff"
     bordercolor="#666666"
     borderopacity="1"
     objecttolerance="10"
     gridtolerance="10"
     guidetolerance="10"
     inkscape:pageopacity="0"
     inkscape:pageshadow="2"
     inkscape:window-width="1411"
     inkscape:window-height="1028"
     id="namedview164"
     showgrid="false"
     fit-margin-top="0"
     fit-margin-left="0"
     fit-margin-right="0"
     fit-margin-bottom="0"
     inkscape:zoom="0.47958642"
     inkscape:cx="638.88613"
     inkscape:cy="196.49381"
     inkscape:window-x="1279"
     inkscape:window-y="333"
     inkscape:window-maximized="0"
     inkscape:current-layer="svg2" />
  <path
     d="m 19.437878,7.563459 a 4.942,4.942 0 0 0 4.364,-5.701"
     id="path4"
     inkscape:connector-curvature="0"
     style="fill:none;stroke:#000000;stroke-width:0.1" />
  <polygon
     points="19.451,11.221 18.95,11.468 19.448,11.721 "
     id="polygon6"
     style="fill:#000000;stroke:none"
     transform="translate(-0.00812213,-3.877541)" />
  <polygon
     points="19.451,11.221 18.95,11.468 19.448,11.721 "
     id="polygon8"
     style="fill:none;stroke:#000000;stroke-width:0.1"
     transform="translate(-0.00812213,-3.877541)" />
  <path
     d="m 25.021878,2.417459 a 9.673,9.673 0 0 0 1.951,4.528"
     id="path10"
     inkscape:connector-curvature="0"
     style="fill:none;stroke:#000000;stroke-width:0.1" />
  <polygon
     points="26.781,10.997 27.299,11.208 27.156,10.667 "
     id="polygon12"
     style="fill:#000000;stroke:none"
     transform="translate(-0.00812213,-3.877541)" />
  <polygon
     points="26.781,10.997 27.299,11.208 27.156,10.667 "
     id="polygon14"
     style="fill:none;stroke:#000000;stroke-width:0.1"
     transform="translate(-0.00812213,-3.877541)" />
  <path
     d="m 18.657878,9.405459 a 5.075,5.075 0 0 0 7.002,1.517"
     id="path16"
     inkscape:connector-curvature="0"
     style="fill:none;stroke:#000000;stroke-width:0.1" />
  <polygon
     points="25.841,15.02 26.073,14.512 25.527,14.631 "
     id="polygon18"
     style="fill:#000000;stroke:none"
     transform="translate(-0.00812213,-3.877541)" />
  <polygon
     points="25.841,15.02 26.073,14.512 25.527,14.631 "
     id="polygon20"
     style="fill:none;stroke:#000000;stroke-width:0.1"
     transform="translate(-0.00812213,-3.877541)" />
  <polygon
     points="18.865,13.187 18.417,12.852 18.418,13.411 "
     id="polygon22"
     style="fill:#000000;stroke:none"
     transform="translate(-0.00812213,-3.877541)" />
  <polygon
     points="18.865,13.187 18.417,12.852 18.418,13.411 "
     id="polygon24"
     style="fill:none;stroke:#000000;stroke-width:0.1"
     transform="translate(-0.00812213,-3.877541)" />
  <path
     d="m 45.837878,6.034459 a 9.792,9.792 0 0 0 -10.546,-7.979"
     id="path26"
     inkscape:connector-curvature="0"
     style="fill:none;stroke:#000000;stroke-width:0.1" />
  <polygon
     points="45.613,9.941 45.924,10.405 46.109,9.878 "
     id="polygon28"
     style="fill:#000000;stroke:none"
     transform="translate(-0.00812213,-3.877541)" />
  <polygon
     points="45.613,9.941 45.924,10.405 46.109,9.878 "
     id="polygon30"
     style="fill:none;stroke:#000000;stroke-width:0.1"
     transform="translate(-0.00812213,-3.877541)" />
  <polygon
     points="35.261,1.671 34.804,1.993 35.336,2.165 "
     id="polygon32"
     style="fill:#000000;stroke:none"
     transform="translate(-0.00812213,-3.877541)" />
  <polygon
     points="35.261,1.671 34.804,1.993 35.336,2.165 "
     id="polygon34"
     style="fill:none;stroke:#000000;stroke-width:0.1"
     transform="translate(-0.00812213,-3.877541)" />
  <path
     d="m 26.263878,-7.156541 a 4.312,4.312 0 0 0 -2.504,6.31499998"
     id="path36"
     inkscape:connector-curvature="0"
     style="fill:none;stroke:#000000;stroke-width:0.1" />
  <polygon
     points="26.302,-3.066 26.756,-3.392 26.222,-3.559 "
     id="polygon38"
     style="fill:#000000;stroke:none"
     transform="translate(-0.00812213,-3.877541)" />
  <polygon
     points="26.302,-3.066 26.756,-3.392 26.222,-3.559 "
     id="polygon40"
     style="fill:none;stroke:#000000;stroke-width:0.1"
     transform="translate(-0.00812213,-3.877541)" />
  <path
     d="m 33.177878,-4.340541 a 4.049,4.049 0 0 0 -2.931,-2.937"
     id="path42"
     inkscape:connector-curvature="0"
     style="fill:none;stroke:#000000;stroke-width:0.1" />
  <polygon
     points="32.973,-0.444 33.277,0.025 33.47,-0.5 "
     id="polygon44"
     style="fill:#000000;stroke:none"
     transform="translate(-0.00812213,-3.877541)" />
  <polygon
     points="32.973,-0.444 33.277,0.025 33.47,-0.5 "
     id="polygon46"
     style="fill:none;stroke:#000000;stroke-width:0.1"
     transform="translate(-0.00812213,-3.877541)" />
  <path
     d="m 26.680878,2.187459 a 4.267,4.267 0 0 0 6.341,-2.16999999"
     id="path48"
     inkscape:connector-curvature="0"
     style="fill:none;stroke:#000000;stroke-width:0.1" />
  <polygon
     points="26.831,5.904 26.288,5.772 26.508,6.286 "
     id="polygon50"
     style="fill:#000000;stroke:none"
     transform="translate(-0.00812213,-3.877541)" />
  <polygon
     points="26.831,5.904 26.288,5.772 26.508,6.286 "
     id="polygon52"
     style="fill:none;stroke:#000000;stroke-width:0.1"
     transform="translate(-0.00812213,-3.877541)" />
  <path
     d="m 10.036878,2.569459 a 4.181,4.181 0 0 0 -2.6630001,7.129"
     id="path54"
     inkscape:connector-curvature="0"
     style="fill:none;stroke:#000000;stroke-width:0.1" />
  <polygon
     points="10.027,6.661 10.541,6.441 10.057,6.161 "
     id="polygon56"
     style="fill:#000000;stroke:none"
     transform="translate(-0.00812213,-3.877541)" />
  <polygon
     points="10.027,6.661 10.541,6.441 10.057,6.161 "
     id="polygon58"
     style="fill:none;stroke:#000000;stroke-width:0.1"
     transform="translate(-0.00812213,-3.877541)" />
  <path
     d="m 18.404878,5.705459 a 3.355,3.355 0 0 0 -3.979,-3.139"
     id="path60"
     inkscape:connector-curvature="0"
     style="fill:none;stroke:#000000;stroke-width:0.1" />
  <polygon
     points="18.21,9.552 18.4,10.078 18.706,9.61 "
     id="polygon62"
     style="fill:#000000;stroke:none"
     transform="translate(-0.00812213,-3.877541)" />
  <polygon
     points="18.21,9.552 18.4,10.078 18.706,9.61 "
     id="polygon64"
     style="fill:none;stroke:#000000;stroke-width:0.1"
     transform="translate(-0.00812213,-3.877541)" />
  <path
     d="m 11.299878,11.937459 a 3.931,3.931 0 0 0 5.867,-2.452"
     id="path66"
     inkscape:connector-curvature="0"
     style="fill:none;stroke:#000000;stroke-width:0.1" />
  <polygon
     points="11.446,15.654 10.901,15.531 11.13,16.041 "
     id="polygon68"
     style="fill:#000000;stroke:none"
     transform="translate(-0.00812213,-3.877541)" />
  <polygon
     points="11.446,15.654 10.901,15.531 11.13,16.041 "
     id="polygon70"
     style="fill:none;stroke:#000000;stroke-width:0.1"
     transform="translate(-0.00812213,-3.877541)" />
  <path
     d="m 34.427878,18.085459 a 6.421,6.421 0 0 0 7.474,-1.323"
     id="path72"
     inkscape:connector-curvature="0"
     style="fill:none;stroke:#000000;stroke-width:0.1" />
  <polygon
     points="34.555,21.77 33.997,21.726 34.296,22.198 "
     id="polygon74"
     style="fill:#000000;stroke:none"
     transform="translate(-0.00812213,-3.877541)" />
  <polygon
     points="34.555,21.77 33.997,21.726 34.296,22.198 "
     id="polygon76"
     style="fill:none;stroke:#000000;stroke-width:0.1"
     transform="translate(-0.00812213,-3.877541)" />
  <path
     d="m 43.650878,8.476459 a 3.949,3.949 0 0 0 -2.254,6.946"
     id="path78"
     inkscape:connector-curvature="0"
     style="fill:none;stroke:#000000;stroke-width:0.1" />
  <polygon
     points="43.641,12.566 44.155,12.347 43.671,12.067 "
     id="polygon80"
     style="fill:#000000;stroke:none"
     transform="translate(-0.00812213,-3.877541)" />
  <polygon
     points="43.641,12.566 44.155,12.347 43.671,12.067 "
     id="polygon82"
     style="fill:none;stroke:#000000;stroke-width:0.1"
     transform="translate(-0.00812213,-3.877541)" />
  <path
     d="m 51.438878,11.740459 a 3.29,3.29 0 0 0 -3.792,-3.268"
     id="path84"
     inkscape:connector-curvature="0"
     style="fill:none;stroke:#000000;stroke-width:0.1" />
  <polygon
     points="51.247,15.576 51.408,16.111 51.739,15.661 "
     id="polygon86"
     style="fill:#000000;stroke:none"
     transform="translate(-0.00812213,-3.877541)" />
  <polygon
     points="51.247,15.576 51.408,16.111 51.739,15.661 "
     id="polygon88"
     style="fill:none;stroke:#000000;stroke-width:0.1"
     transform="translate(-0.00812213,-3.877541)" />
  <path
     d="m 44.713878,17.159459 a 3.33,3.33 0 0 0 5.458,-1.642"
     id="path90"
     inkscape:connector-curvature="0"
     style="fill:none;stroke:#000000;stroke-width:0.1" />
  <polygon
     points="44.888,20.915 44.381,20.679 44.496,21.226 "
     id="polygon92"
     style="fill:#000000;stroke:none"
     transform="translate(-0.00812213,-3.877541)" />
  <polygon
     points="44.888,20.915 44.381,20.679 44.496,21.226 "
     id="polygon94"
     style="fill:none;stroke:#000000;stroke-width:0.1"
     transform="translate(-0.00812213,-3.877541)" />
  <line
     x1="50.146881"
     y1="-3.7185411"
     x2="52.266884"
     y2="-3.6865411"
     id="line96"
     style="stroke:#000000;stroke-width:0.1" />
  <polygon
     points="50.158,-0.091 49.655,0.151 50.151,0.409 "
     id="polygon98"
     style="fill:#000000;stroke:none"
     transform="translate(-0.00812213,-3.877541)" />
  <polygon
     points="50.158,-0.091 49.655,0.151 50.151,0.409 "
     id="polygon100"
     style="fill:none;stroke:#000000;stroke-width:0.1"
     transform="translate(-0.00812213,-3.877541)" />
  <polygon
     points="52.271,0.441 52.775,0.199 52.279,-0.058 "
     id="polygon102"
     style="fill:#000000;stroke:none"
     transform="translate(-0.00812213,-3.877541)" />
  <polygon
     points="52.271,0.441 52.775,0.199 52.279,-0.058 "
     id="polygon104"
     style="fill:none;stroke:#000000;stroke-width:0.1"
     transform="translate(-0.00812213,-3.877541)" />
  <path
     d="m 52.442878,13.572459 a 8.586,8.586 0 0 0 3.319,-15.91"
     id="path106"
     inkscape:connector-curvature="0"
     style="fill:none;stroke:#000000;stroke-width:0.1" />
  <polygon
     points="52.439,17.218 51.955,17.497 52.468,17.717 "
     id="polygon108"
     style="fill:#000000;stroke:none"
     transform="translate(-0.00812213,-3.877541)" />
  <polygon
     points="52.439,17.218 51.955,17.497 52.468,17.717 "
     id="polygon110"
     style="fill:none;stroke:#000000;stroke-width:0.1"
     transform="translate(-0.00812213,-3.877541)" />
  <ellipse
     cx="12.435"
     cy="6.8629999"
     rx="1.915"
     ry="1.95"
     id="ellipse112"
     sodipodi:cx="12.435"
     sodipodi:cy="6.8629999"
     sodipodi:rx="1.915"
     sodipodi:ry="1.95"
     style="fill:#ffffff;stroke:none"
     transform="translate(-0.00812213,-3.877541)" />
  <ellipse
     cx="12.435"
     cy="6.8629999"
     rx="1.915"
     ry="1.95"
     id="ellipse114"
     sodipodi:cx="12.435"
     sodipodi:cy="6.8629999"
     sodipodi:rx="1.915"
     sodipodi:ry="1.95"
     style="fill:none;stroke:#4d4d4d;stroke-width:0.1;stroke-dasharray:0.1, 0.1"
     transform="translate(-0.00812213,-3.877541)" />
  <ellipse
     cx="9.1700001"
     cy="14.517"
     rx="1.97"
     ry="1.95"
     id="ellipse116"
     sodipodi:cx="9.1700001"
     sodipodi:cy="14.517"
     sodipodi:rx="1.97"
     sodipodi:ry="1.95"
     style="fill:#ffffff;stroke:none"
     transform="translate(-0.00812213,-3.877541)" />
  <ellipse
     cx="9.1700001"
     cy="14.517"
     rx="1.97"
     ry="1.95"
     id="ellipse118"
     sodipodi:cx="9.1700001"
     sodipodi:cy="14.517"
     sodipodi:rx="1.97"
     sodipodi:ry="1.95"
     style="fill:none;stroke:#4d4d4d;stroke-width:0.1;stroke-dasharray:0.1, 0.1"
     transform="translate(-0.00812213,-3.877541)" />
  <ellipse
     cx="17.174999"
     cy="11.467"
     rx="1.725"
     ry="1.895"
     id="ellipse120"
     sodipodi:cx="17.174999"
     sodipodi:cy="11.467"
     sodipodi:rx="1.725"
     sodipodi:ry="1.895"
     style="fill:#ffffff;stroke:none"
     transform="translate(-0.00812213,-3.877541)" />
  <ellipse
     cx="17.174999"
     cy="11.467"
     rx="1.725"
     ry="1.895"
     id="ellipse122"
     sodipodi:cx="17.174999"
     sodipodi:cy="11.467"
     sodipodi:rx="1.725"
     sodipodi:ry="1.895"
     style="fill:none;stroke:#4d4d4d;stroke-width:0.1;stroke-dasharray:0.1, 0.1"
     transform="translate(-0.00812213,-3.877541)" />
  <ellipse
     cx="28.530001"
     cy="-3.4000001"
     rx="1.725"
     ry="1.895"
     id="ellipse124"
     sodipodi:cx="28.530001"
     sodipodi:cy="-3.4000001"
     sodipodi:rx="1.725"
     sodipodi:ry="1.895"
     style="fill:none;stroke:none"
     transform="translate(-0.00812213,-3.877541)" />
  <ellipse
     cx="28.530001"
     cy="-3.4000001"
     rx="1.725"
     ry="1.895"
     id="ellipse126"
     sodipodi:cx="28.530001"
     sodipodi:cy="-3.4000001"
     sodipodi:rx="1.725"
     sodipodi:ry="1.895"
     style="fill:none;stroke:#4d4d4d;stroke-width:0.1;stroke-dasharray:0.1, 0.1"
     transform="translate(-0.00812213,-3.877541)" />
  <ellipse
     cx="25.030001"
     cy="4.4000001"
     rx="1.725"
     ry="1.895"
     id="ellipse128"
     sodipodi:cx="25.030001"
     sodipodi:cy="4.4000001"
     sodipodi:rx="1.725"
     sodipodi:ry="1.895"
     style="fill:#ffffff;stroke:none;fill-opacity:1;opacity:0"
     transform="translate(-0.00812213,-3.877541)" />
  <ellipse
     cx="25.030001"
     cy="4.4000001"
     rx="1.725"
     ry="1.895"
     id="ellipse130"
     sodipodi:cx="25.030001"
     sodipodi:cy="4.4000001"
     sodipodi:rx="1.725"
     sodipodi:ry="1.895"
     style="fill:none;stroke:#4d4d4d;stroke-width:0.1;stroke-dasharray:0.1, 0.1"
     transform="translate(-0.00812213,-3.877541)" />
  <ellipse
     cx="33.029999"
     cy="2"
     rx="1.725"
     ry="1.895"
     id="ellipse132"
     sodipodi:cx="33.029999"
     sodipodi:cy="2"
     sodipodi:rx="1.725"
     sodipodi:ry="1.895"
     style="fill:none;stroke:none"
     transform="translate(-0.00812213,-3.877541)" />
  <ellipse
     cx="33.029999"
     cy="2"
     rx="1.725"
     ry="1.895"
     id="ellipse134"
     sodipodi:cx="33.029999"
     sodipodi:cy="2"
     sodipodi:rx="1.725"
     sodipodi:ry="1.895"
     style="fill:none;stroke:#4d4d4d;stroke-width:0.1;stroke-dasharray:0.1, 0.1"
     transform="translate(-0.00812213,-3.877541)" />
  <ellipse
     cx="47.880001"
     cy="0.15000001"
     rx="1.725"
     ry="1.895"
     id="ellipse136"
     sodipodi:cx="47.880001"
     sodipodi:cy="0.15000001"
     sodipodi:rx="1.725"
     sodipodi:ry="1.895"
     style="fill:none;stroke:none"
     transform="translate(-0.00812213,-3.877541)" />
  <ellipse
     cx="47.880001"
     cy="0.15000001"
     rx="1.725"
     ry="1.895"
     id="ellipse138"
     sodipodi:cx="47.880001"
     sodipodi:cy="0.15000001"
     sodipodi:rx="1.725"
     sodipodi:ry="1.895"
     style="fill:none;stroke:#4d4d4d;stroke-width:0.1;stroke-dasharray:0.1, 0.1"
     transform="translate(-0.00812213,-3.877541)" />
  <ellipse
     cx="54.549999"
     cy="0.2"
     rx="1.725"
     ry="1.895"
     id="ellipse140"
     sodipodi:cx="54.549999"
     sodipodi:cy="0.2"
     sodipodi:rx="1.725"
     sodipodi:ry="1.895"
     style="fill:none;stroke:none"
     transform="translate(-0.00812213,-3.877541)" />
  <ellipse
     cx="54.549999"
     cy="0.2"
     rx="1.725"
     ry="1.895"
     id="ellipse142"
     sodipodi:cx="54.549999"
     sodipodi:cy="0.2"
     sodipodi:rx="1.725"
     sodipodi:ry="1.895"
     style="fill:none;stroke:#4d4d4d;stroke-width:0.1;stroke-dasharray:0.1, 0.1"
     transform="translate(-0.00812213,-3.877541)" />
  <ellipse
     cx="32.23"
     cy="21.700001"
     rx="1.725"
     ry="1.895"
     id="ellipse144"
     sodipodi:cx="32.23"
     sodipodi:cy="21.700001"
     sodipodi:rx="1.725"
     sodipodi:ry="1.895"
     style="fill:none;stroke:none"
     transform="translate(-0.00812213,-3.877541)" />
  <ellipse
     cx="32.23"
     cy="21.700001"
     rx="1.725"
     ry="1.895"
     id="ellipse146"
     sodipodi:cx="32.23"
     sodipodi:cy="21.700001"
     sodipodi:rx="1.725"
     sodipodi:ry="1.895"
     style="fill:none;stroke:#4d4d4d;stroke-width:0.1;stroke-dasharray:0.1, 0.1"
     transform="translate(-0.00812213,-3.877541)" />
  <ellipse
     cx="45.93"
     cy="12.35"
     rx="1.725"
     ry="1.895"
     id="ellipse148"
     sodipodi:cx="45.93"
     sodipodi:cy="12.35"
     sodipodi:rx="1.725"
     sodipodi:ry="1.895"
     style="fill:none;stroke:none"
     transform="translate(-0.00812213,-3.877541)" />
  <ellipse
     cx="45.93"
     cy="12.35"
     rx="1.725"
     ry="1.895"
     id="ellipse150"
     sodipodi:cx="45.93"
     sodipodi:cy="12.35"
     sodipodi:rx="1.725"
     sodipodi:ry="1.895"
     style="fill:none;stroke:#4d4d4d;stroke-width:0.1;stroke-dasharray:0.1, 0.1"
     transform="translate(-0.00812213,-3.877541)" />
  <ellipse
     cx="43.130001"
     cy="19.299999"
     rx="1.725"
     ry="1.895"
     id="ellipse152"
     sodipodi:cx="43.130001"
     sodipodi:cy="19.299999"
     sodipodi:rx="1.725"
     sodipodi:ry="1.895"
     style="fill:none;stroke:none"
     transform="translate(-0.00812213,-3.877541)" />
  <ellipse
     cx="43.130001"
     cy="19.299999"
     rx="1.725"
     ry="1.895"
     id="ellipse154"
     sodipodi:cx="43.130001"
     sodipodi:cy="19.299999"
     sodipodi:rx="1.725"
     sodipodi:ry="1.895"
     style="fill:none;stroke:#4d4d4d;stroke-width:0.1;stroke-dasharray:0.1, 0.1"
     transform="translate(-0.00812213,-3.877541)" />
  <ellipse
     cx="50.18"
     cy="17.5"
     rx="1.725"
     ry="1.895"
     id="ellipse156"
     sodipodi:cx="50.18"
     sodipodi:cy="17.5"
     sodipodi:rx="1.725"
     sodipodi:ry="1.895"
     style="fill:none;stroke:none"
     transform="translate(-0.00812213,-3.877541)" />
  <ellipse
     cx="50.18"
     cy="17.5"
     rx="1.725"
     ry="1.895"
     id="ellipse158"
     sodipodi:cx="50.18"
     sodipodi:cy="17.5"
     sodipodi:rx="1.725"
     sodipodi:ry="1.895"
     style="fill:none;stroke:#4d4d4d;stroke-width:0.1;stroke-dasharray:0.1, 0.1"
     transform="translate(-0.00812213,-3.877541)" />
  <ellipse
     cx="27.332001"
     cy="13.14"
     rx="1.725"
     ry="1.895"
     id="ellipse160"
     sodipodi:cx="27.332001"
     sodipodi:cy="13.14"
     sodipodi:rx="1.725"
     sodipodi:ry="1.895"
     style="fill:none;stroke:none"
     transform="translate(-0.00812213,-3.877541)" />
  <ellipse
     cx="27.332001"
     cy="13.14"
     rx="1.725"
     ry="1.895"
     id="ellipse162"
     sodipodi:cx="27.332001"
     sodipodi:cy="13.14"
     sodipodi:rx="1.725"
     sodipodi:ry="1.895"
     style="fill:none;stroke:#4d4d4d;stroke-width:0.1;stroke-dasharray:0.1, 0.1"
     transform="translate(-0.00812213,-3.877541)" />
</svg>
