<?xml version="1.0" encoding="UTF-8" standalone="no"?>
<!-- Created by diasvg.py -->

<svg
   xmlns:dc="http://purl.org/dc/elements/1.1/"
   xmlns:cc="http://creativecommons.org/ns#"
   xmlns:rdf="http://www.w3.org/1999/02/22-rdf-syntax-ns#"
   xmlns:svg="http://www.w3.org/2000/svg"
   xmlns="http://www.w3.org/2000/svg"
   xmlns:sodipodi="http://sodipodi.sourceforge.net/DTD/sodipodi-0.dtd"
   xmlns:inkscape="http://www.inkscape.org/namespaces/inkscape"
   width="271.25449"
   height="273.05844"
   viewBox="7.146 4.755 12.137994 10.687646"
   id="svg2"
   version="1.1"
   inkscape:version="0.48.4 r9939"
   sodipodi:docname="scale_0.svg">
  <sodipodi:namedview
     pagecolor="#ffffff"
     bordercolor="#666666"
     borderopacity="1"
     objecttolerance="10"
     gridtolerance="10"
     guidetolerance="10"
     inkscape:pageopacity="0"
     inkscape:pageshadow="2"
     inkscape:window-width="1309"
     inkscape:window-height="839"
     id="namedview28"
     showgrid="false"
     fit-margin-top="0"
     fit-margin-left="0"
     fit-margin-right="0"
     fit-margin-bottom="0"
     inkscape:zoom="0.76635676"
     inkscape:cx="52.890296"
     inkscape:cy="-60.066977"
     inkscape:window-x="1451"
     inkscape:window-y="470"
     inkscape:window-maximized="0"
     inkscape:current-layer="svg2" />
  <metadata
     id="metadata32">
    <rdf:RDF>
      <cc:Work
         rdf:about="">
        <dc:format>image/svg+xml</dc:format>
        <dc:type
           rdf:resource="http://purl.org/dc/dcmitype/StillImage" />
      </cc:Work>
    </rdf:RDF>
  </metadata>
  <defs
     id="defs30" />
  <path
     style="fill:none;stroke:#000000;stroke-width:0.1"
     inkscape:connector-curvature="0"
     id="path4"
     d="M 10.729993,5.7914247 A 4.746,4.746 0 0 0 8.6839932,13.850425" />
  <polygon
     transform="translate(-0.01600684,-0.81557531)"
     style="fill:#000000;stroke:none"
     id="polygon6"
     points="10.773,6.824 11.233,6.507 10.704,6.329 " />
  <polygon
     transform="translate(-0.01600684,-0.81557531)"
     style="fill:none;stroke:#000000;stroke-width:0.1"
     id="polygon8"
     points="10.773,6.824 11.233,6.507 10.704,6.329 " />
  <path
     style="fill:none;stroke:#000000;stroke-width:0.1"
     inkscape:connector-curvature="0"
     id="path10"
     d="m 17.839993,9.1904247 a 4.416,4.416 0 0 0 -3.123,-3.506" />
  <polygon
     transform="translate(-0.01600684,-0.81557531)"
     style="fill:#000000;stroke:none"
     id="polygon12"
     points="17.64,10.011 17.911,10.5 18.139,9.99 " />
  <polygon
     transform="translate(-0.01600684,-0.81557531)"
     style="fill:none;stroke:#000000;stroke-width:0.1"
     id="polygon14"
     points="17.64,10.011 17.911,10.5 18.139,9.99 " />
  <path
     style="fill:none;stroke:#000000;stroke-width:0.1"
     inkscape:connector-curvature="0"
     id="path16"
     d="m 12.148993,15.752425 a 3.795,3.795 0 0 0 5.513,-2.868" />
  <polygon
     transform="translate(-0.01600684,-0.81557531)"
     style="fill:#000000;stroke:none"
     id="polygon18"
     points="12.292,16.4 11.741,16.311 12.001,16.806 " />
  <polygon
     transform="translate(-0.01600684,-0.81557531)"
     style="fill:none;stroke:#000000;stroke-width:0.1"
     id="polygon20"
     points="12.292,16.4 11.741,16.311 12.001,16.806 " />
  <path
     d="m 12.888087,7.5001378 c -0.03575,-0.00397 -0.03894,-0.00621 -0.05513,-0.038288 -0.019,-0.037658 -0.01553,-0.065043 0.01481,-0.1168107 0.02631,-0.044902 0.06626,-0.086201 0.100766,-0.1041456 0.01828,-0.00951 0.02479,-0.016333 0.02859,-0.029993 0.0027,-0.00973 0.0091,-0.032882 0.01431,-0.051467 0.0091,-0.032998 0.01529,-0.077469 0.02241,-0.1629612 l 0.0035,-0.042303 -0.0303,-0.026474 -0.0303,-0.026474 -0.03705,-5.721e-4 c -0.0723,-0.00116 -0.155659,0.00381 -0.237257,0.014156 -0.02612,0.00331 -0.02628,0.00339 -0.03603,0.02986 -0.0054,0.014603 -0.01118,0.034769 -0.01287,0.044811 -0.0017,0.01005 -0.0095,0.03068 -0.01746,0.045854 -0.01721,0.033014 -0.03847,0.1038277 -0.03178,0.1058212 0.03303,0.00983 0.0433,0.01967 0.06941,0.066558 0.04175,0.074928 0.05857,0.1322698 0.0539,0.1836911 -0.0027,0.030042 -0.0052,0.03616 -0.02138,0.05179 -0.02204,0.021358 -0.04034,0.026656 -0.05305,0.015373 -0.007,-0.00621 -0.0081,-0.012062 -0.0049,-0.025688 0.0063,-0.02635 0.004,-0.053917 -0.0063,-0.075549 -0.0086,-0.017906 -0.0098,-0.01866 -0.01662,-0.010414 -0.0041,0.00488 -0.0089,0.017923 -0.01072,0.028958 -0.0064,0.039066 -0.01552,0.061724 -0.03033,0.075797 -0.01759,0.016714 -0.02832,0.017856 -0.04325,0.00464 -0.0099,-0.00877 -0.01087,-0.016085 -0.01087,-0.079638 0,-0.042336 -0.0021,-0.069986 -0.0053,-0.069986 -0.0083,0 -0.02028,0.019876 -0.02434,0.040366 -0.0035,0.017981 -0.01567,0.04414 -0.0458,0.098967 -0.02258,0.041069 -0.06062,0.048743 -0.117539,0.023693 -0.03583,-0.015779 -0.04052,-0.024289 -0.04066,-0.073918 -1.21e-4,-0.045871 -0.0013,-0.042584 0.03731,-0.1045082 0.01614,-0.025878 0.08301,-0.1016935 0.105893,-0.1200682 0.0094,-0.00753 0.03223,-0.021623 0.05079,-0.031326 l 0.03375,-0.017641 0.02449,-0.056194 c 0.01347,-0.030903 0.0271,-0.066732 0.03028,-0.079613 0.0032,-0.012881 0.0096,-0.029877 0.01415,-0.037774 0.0075,-0.012798 0.0075,-0.015555 1.83e-4,-0.025439 -0.0078,-0.010646 -0.01202,-0.011217 -0.105007,-0.014421 -0.143412,-0.00497 -0.176314,-0.00654 -0.195021,-0.00969 -0.02348,-0.00389 -0.06008,-0.033072 -0.0679,-0.054083 -0.0082,-0.022153 -0.0034,-0.060772 0.01145,-0.090463 0.0096,-0.019189 0.01033,-0.025133 0.0051,-0.03924 -0.0082,-0.02207 -0.0028,-0.035208 0.02253,-0.054555 0.01156,-0.00883 0.02101,-0.018088 0.02101,-0.020563 0,-0.00248 0.0047,-0.013709 0.01052,-0.024959 0.0058,-0.01125 0.01702,-0.034438 0.02495,-0.051516 0.03586,-0.077179 0.128135,-0.1795784 0.347794,-0.385949 0.07476,-0.070234 0.149065,-0.1408802 0.165142,-0.1569958 0.01607,-0.016118 0.04936,-0.046682 0.07397,-0.067916 0.02461,-0.021234 0.04914,-0.044712 0.05451,-0.052162 l 0.0098,-0.013552 -0.02243,-0.020282 c -0.01347,-0.012186 -0.02807,-0.032791 -0.03655,-0.051608 -0.01884,-0.041773 -0.04494,-0.087002 -0.05706,-0.098895 -0.01003,-0.00983 -0.03517,-0.049256 -0.06464,-0.1013558 -0.02113,-0.037352 -0.05747,-0.1275925 -0.06512,-0.1616871 -0.0033,-0.014603 -0.0083,-0.03669 -0.01114,-0.049091 -0.0078,-0.03395 -0.0226,-0.057907 -0.0434,-0.070333 -0.01631,-0.00974 -0.02291,-0.010778 -0.05165,-0.00811 -0.07151,0.00654 -0.144896,0.025978 -0.181391,0.04799 -0.01088,0.00654 -0.02631,0.01197 -0.03425,0.01197 -0.0079,0 -0.01945,0.00381 -0.02558,0.00844 -0.02185,0.016573 -0.07315,0.076376 -0.08319,0.096964 -0.01199,0.024587 -0.100756,0.1134704 -0.138748,0.1389198 -0.0145,0.00972 -0.03876,0.027956 -0.05389,0.040531 -0.0293,0.024339 -0.03649,0.026598 -0.100234,0.031466 -0.02313,0.00174 -0.04802,0.00679 -0.05752,0.011681 -0.0092,0.00472 -0.02557,0.011143 -0.03634,0.014297 -0.01289,0.00381 -0.0266,0.013899 -0.04009,0.029604 -0.0184,0.021424 -0.02267,0.023858 -0.04175,0.023858 -0.01574,0 -0.03141,0.00563 -0.06049,0.021723 -0.02159,0.011946 -0.04167,0.021722 -0.04462,0.021722 -0.003,0 -0.02232,0.01308 -0.04304,0.029066 -0.04307,0.033304 -0.08867,0.057825 -0.107372,0.057825 -0.01769,0 -0.03083,-0.014479 -0.03083,-0.033983 0,-0.013577 0.0051,-0.020655 0.03047,-0.041922 0.02967,-0.02491 0.0305,-0.026309 0.03126,-0.052899 l 7.77e-4,-0.027368 0.03654,-0.019678 c 0.0201,-0.01082 0.03661,-0.022352 0.0367,-0.025613 8.7e-5,-0.00323 -0.0065,-0.00737 -0.01479,-0.00906 -0.01765,-0.00373 -0.04805,-0.018817 -0.06524,-0.032468 -0.02412,-0.019156 -0.01068,-0.055755 0.02109,-0.057394 0.03523,-0.00182 0.04894,0.00174 0.06885,0.017666 0.02563,0.020564 0.0796,0.038925 0.126167,0.042924 0.03032,0.00257 0.03996,0.00132 0.06796,-0.00916 0.05458,-0.020406 0.09654,-0.030895 0.123856,-0.030961 0.03551,-8.44e-5 0.05468,-0.0082 0.102012,-0.043172 0.05202,-0.038437 0.08779,-0.074191 0.127553,-0.1274716 0.04727,-0.063346 0.09864,-0.113881 0.133321,-0.1311547 0.03638,-0.018121 0.108715,-0.040796 0.184207,-0.057758 0.03114,-0.00695 0.0635,-0.015878 0.07192,-0.019744 0.0084,-0.00389 0.04263,-0.011168 0.07603,-0.016226 0.04813,-0.00728 0.06754,-0.0082 0.09354,-0.00447 0.02981,0.00422 0.03427,0.00373 0.04877,-0.00579 0.01426,-0.00936 0.02037,-0.010158 0.05744,-0.00745 0.0239,0.00174 0.0507,7.981e-4 0.06323,-0.00215 0.01196,-0.00281 0.02739,-0.00637 0.03427,-0.00786 0.0069,-0.00149 0.02248,0.00132 0.03464,0.00613 l 0.0221,0.00885 0.0157,-0.015597 c 0.01374,-0.013643 0.01529,-0.018146 0.0124,-0.035986 -0.006,-0.036913 -0.01308,-0.055548 -0.02235,-0.058711 -0.005,-0.00174 -0.03267,5.39e-4 -0.06142,0.00497 -0.04468,0.00695 -0.0613,0.00737 -0.114483,0.00265 -0.105802,-0.00926 -0.139172,-0.014181 -0.16088,-0.023734 -0.01151,-0.00505 -0.05029,-0.017401 -0.08617,-0.027418 -0.03588,-0.010017 -0.08236,-0.024463 -0.103295,-0.032104 -0.0779,-0.028453 -0.152838,-0.040448 -0.325096,-0.052038 -0.03229,-0.00215 -0.06153,-0.00646 -0.06497,-0.00951 -0.0034,-0.00306 -0.01715,-0.00555 -0.03045,-0.00555 -0.04191,0 -0.11127,-0.01428 -0.121779,-0.025075 -0.01341,-0.013784 -0.01182,-0.02645 0.0045,-0.035953 0.02332,-0.013568 0.114506,-0.014851 0.179891,-0.00257 0.0294,0.00555 0.0828,0.013577 0.118686,0.017857 0.113511,0.013543 0.12919,0.0163 0.187605,0.032956 0.03142,0.00897 0.06557,0.017939 0.07589,0.019951 0.01032,0.00199 0.02987,0.00795 0.04345,0.013221 0.06396,0.024786 0.175477,0.055962 0.220443,0.061625 0.05752,0.00728 0.146782,0.00397 0.203649,-0.00753 0.0429,-0.00866 0.05846,-0.021367 0.05241,-0.042775 -0.006,-0.021019 -0.01773,-0.026913 -0.05399,-0.026996 -0.01848,-4.39e-5 -0.04704,-0.00315 -0.0635,-0.00695 -0.05787,-0.013303 -0.07383,-0.016491 -0.122225,-0.024347 -0.02685,-0.00439 -0.05988,-0.012045 -0.07339,-0.01707 -0.01351,-0.00505 -0.05014,-0.01154 -0.08141,-0.014487 -0.03126,-0.00298 -0.06552,-0.00858 -0.07611,-0.012517 -0.02159,-0.00803 -0.118354,-0.02587 -0.140264,-0.02587 -0.01637,0 -0.06551,-0.00745 -0.112754,-0.017186 -0.01794,-0.00373 -0.08524,-0.00902 -0.149506,-0.011871 -0.06627,-0.00298 -0.128793,-0.0082 -0.144396,-0.01207 -0.07829,-0.019595 -0.111286,-0.07819 -0.07067,-0.1254401 0.02077,-0.024181 0.06698,-0.050631 0.08846,-0.050631 0.03843,0 0.04532,0.04828 0.0096,0.067005 -0.0099,0.00522 -0.02072,0.013891 -0.02399,0.019322 -0.01296,0.021491 0.03012,0.032278 0.154611,0.038751 0.04785,0.00248 0.09387,0.00687 0.10229,0.0097 0.0084,0.00281 0.02734,0.00522 0.04206,0.00522 0.01471,0 0.03718,0.00215 0.04993,0.0048 0.01275,0.00265 0.04398,0.00803 0.0694,0.011987 0.02542,0.00397 0.0644,0.01159 0.08661,0.016938 0.02222,0.00538 0.04744,0.00973 0.05604,0.00973 0.02128,0 0.109101,0.016267 0.21108,0.039107 0.179233,0.040134 0.238851,0.042965 0.238851,0.011333 0,-0.00811 -0.0052,-0.014794 -0.01627,-0.020754 -0.025,-0.013494 -0.08001,-0.022691 -0.236529,-0.039529 -0.0511,-0.00546 -0.127988,-0.017294 -0.17397,-0.02669 -0.01794,-0.00364 -0.05165,-0.00887 -0.0749,-0.011581 -0.02326,-0.00273 -0.05139,-0.00901 -0.06252,-0.014007 -0.01113,-0.00497 -0.0288,-0.010638 -0.03927,-0.012525 -0.02471,-0.00447 -0.06397,-0.027683 -0.111515,-0.065979 -0.07467,-0.060159 -0.119545,-0.078065 -0.216588,-0.086433 -0.09092,-0.00786 -0.09441,-0.00858 -0.106845,-0.022625 -0.01475,-0.016648 -0.01205,-0.033958 0.0073,-0.046665 0.0127,-0.00835 0.02226,-0.00997 0.05437,-0.0092 0.06656,0.00157 0.161194,0.020431 0.207308,0.041259 0.02514,0.011358 0.101587,0.06703 0.126166,0.091881 0.04357,0.044058 0.128195,0.070946 0.260016,0.082618 0.111275,0.00985 0.208058,0.020953 0.214755,0.024628 0.0029,0.00157 0.0328,0.00596 0.06649,0.00975 0.03369,0.00381 0.06791,0.00828 0.07604,0.00996 0.01639,0.00339 0.01981,-0.00116 0.03007,-0.040481 0.0044,-0.016731 0.0038,-0.022178 -0.0028,-0.028031 -0.0047,-0.00422 -0.01187,-0.00588 -0.01699,-0.00389 -0.01562,0.00596 -0.100555,0.00786 -0.122981,0.00273 -0.07651,-0.017459 -0.117501,-0.036384 -0.148881,-0.068727 -0.02876,-0.029637 -0.03861,-0.046152 -0.03862,-0.064704 -4e-6,-0.00795 -0.0042,-0.024802 -0.0092,-0.037427 -0.008,-0.019967 -0.0084,-0.026863 -0.0025,-0.053089 0.0156,-0.070184 0.04715,-0.1179498 0.08525,-0.1291133 0.01042,-0.00306 0.01894,-0.0082 0.01894,-0.011358 0,-0.00323 -0.02813,-0.031036 -0.06252,-0.061881 -0.03439,-0.030837 -0.06253,-0.060093 -0.06255,-0.06501 -3.8e-5,-0.016673 -0.0201,-0.039223 -0.03799,-0.042708 -0.03073,-0.00596 -0.03631,-0.046425 -0.0076,-0.055763 0.01439,-0.00472 0.06872,0.014272 0.08857,0.030928 0.0078,0.00654 0.02413,0.014247 0.03627,0.017103 0.01678,0.00397 0.02409,0.00896 0.03053,0.020936 0.0065,0.012169 0.01974,0.021035 0.05799,0.038942 0.02724,0.012749 0.05086,0.025092 0.05248,0.027426 0.0016,0.00232 0.01697,0.00778 0.03412,0.012178 0.01714,0.00439 0.03644,0.010936 0.04289,0.014611 0.0064,0.00364 0.02357,0.00924 0.03806,0.01236 0.0316,0.00679 0.100941,0.035887 0.146037,0.061235 0.03827,0.021507 0.161548,0.058884 0.194759,0.059058 0.02752,1.399e-4 0.04242,0.00331 0.125896,0.026557 0.08916,0.024852 0.129875,0.030953 0.209309,0.031359 0.09857,5.033e-4 0.09746,9.106e-4 0.256454,-0.090077 0.01995,-0.011416 0.03952,-0.024827 0.04349,-0.02981 0.01098,-0.013784 0.07403,-0.059787 0.109075,-0.07958 0.09954,-0.056243 0.174731,-0.074423 0.213493,-0.051632 0.02042,0.012004 0.02785,0.011995 0.0683,-1.002e-4 0.04058,-0.012136 0.06404,-0.00834 0.07521,0.012169 0.0065,0.011921 0.0065,0.01563 0,0.025787 -0.0088,0.013626 -0.0078,0.013154 -0.07284,0.038735 -0.04853,0.019098 -0.09203,0.033884 -0.138105,0.04693 -0.03238,0.00916 -0.06038,0.028734 -0.06013,0.042029 1.07e-4,0.00588 0.0037,0.016044 0.0079,0.022683 0.0043,0.00662 0.0078,0.016797 0.0079,0.022575 1.06e-4,0.00579 0.009,0.025324 0.01991,0.043437 0.02401,0.040109 0.02566,0.062278 0.0084,0.112568 -0.0117,0.033999 -0.01526,0.03861 -0.05869,0.075987 -0.02543,0.02188 -0.05769,0.044828 -0.07169,0.050995 -0.014,0.00613 -0.0328,0.014802 -0.04178,0.019189 -0.03658,0.01789 -0.09301,0.033387 -0.130831,0.03592 -0.03593,0.0024 -0.04188,0.00149 -0.06408,-0.010075 -0.01348,-0.00704 -0.02827,-0.01274 -0.03289,-0.01274 -0.0089,0 -0.04675,0.048652 -0.04675,0.060093 0,0.00373 0.0043,0.00795 0.0095,0.0093 0.04019,0.01048 0.07011,0.00837 0.164457,-0.01159 0.02243,-0.00472 0.06646,-0.012285 0.09786,-0.016764 0.03139,-0.00447 0.08033,-0.013345 0.108731,-0.019719 0.05921,-0.013278 0.121639,-0.023122 0.195718,-0.03087 0.0284,-0.00298 0.081,-0.010878 0.116886,-0.017567 0.136409,-0.02544 0.192916,-0.026499 0.218148,-0.00414 0.01619,0.014371 0.01628,0.025365 3.76e-4,0.046177 -0.01384,0.018113 -0.02463,0.019611 -0.06835,0.00951 -0.01899,-0.00439 -0.02944,-0.00406 -0.05165,0.00149 -0.03958,0.00999 -0.117491,0.022252 -0.141439,0.022252 -0.01118,0 -0.02538,0.0024 -0.03157,0.00538 -0.0083,0.00397 -0.01932,0.00389 -0.04178,-3.022e-4 -0.02693,-0.00497 -0.03461,-0.00447 -0.06527,0.0043 -0.01911,0.00546 -0.05065,0.012219 -0.0701,0.014984 -0.01945,0.00273 -0.0399,0.0072 -0.04545,0.00981 -0.0056,0.00265 -0.03517,0.00895 -0.06581,0.014032 -0.08449,0.014007 -0.159569,0.028536 -0.175836,0.034032 -0.008,0.00273 -0.04535,0.00629 -0.08295,0.00803 -0.0606,0.00273 -0.07165,0.00464 -0.09732,0.016598 -0.02092,0.00977 -0.03343,0.012732 -0.04506,0.010663 -0.0096,-0.00166 -0.01614,-8.196e-4 -0.01614,0.00215 0,0.00679 0.115761,0.00959 0.196184,0.0048 0.03465,-0.00207 0.09458,-0.0082 0.133196,-0.013618 0.107046,-0.015042 0.197522,-0.020348 0.284954,-0.016706 0.115015,0.0048 0.133761,0.00455 0.184843,-0.00199 0.07353,-0.00943 0.185012,-0.011764 0.201153,-0.00422 0.01927,0.00902 0.02134,0.033494 0.0041,0.048776 -0.0119,0.010563 -0.01876,0.011681 -0.0914,0.014893 -0.04319,0.0019 -0.09991,0.0077 -0.126047,0.01279 -0.06018,0.011805 -0.08977,0.011747 -0.137181,-2.905e-4 -0.04243,-0.01077 -0.133556,-0.015953 -0.1714,-0.00974 -0.01345,0.00224 -0.04159,0.00629 -0.06252,0.00916 -0.02093,0.00281 -0.06863,0.00941 -0.106013,0.014628 -0.07367,0.010273 -0.129162,0.013858 -0.263782,0.01702 -0.09938,0.0024 -0.146679,0.01178 -0.146679,0.029248 0,0.00873 0.0049,0.00999 0.05165,0.013163 0.0284,0.0019 0.08345,0.00439 0.122323,0.00546 0.136757,0.00381 0.218138,0.00904 0.28542,0.018362 0.03738,0.00522 0.0854,0.011325 0.106715,0.013659 0.04541,0.00497 0.189595,0.00199 0.224917,-0.00464 0.01346,-0.00248 0.04159,-0.00422 0.06252,-0.00373 0.03207,7.119e-4 0.04652,-0.00199 0.09189,-0.017111 0.06311,-0.02106 0.09108,-0.023014 0.103523,-0.0072 0.01935,0.024529 -2.55e-4,0.05684 -0.0345,0.05684 -0.0078,0 -0.02351,0.00555 -0.03474,0.012327 -0.0322,0.019421 -0.06241,0.026954 -0.117447,0.029264 -0.02809,0.00116 -0.05306,0.00323 -0.05547,0.00455 -0.01042,0.00571 -0.174711,0.011242 -0.199317,0.00671 -0.01417,-0.00265 -0.04637,-0.00795 -0.07156,-0.011813 -0.0252,-0.00389 -0.05333,-0.00908 -0.06252,-0.011557 -0.02164,-0.00579 -0.145445,-0.01423 -0.255927,-0.017376 -0.04785,-0.00132 -0.118789,-0.00389 -0.15766,-0.00555 -0.0904,-0.00389 -0.174841,0.00132 -0.183763,0.011408 -0.0126,0.014247 -0.03983,0.037807 -0.07329,0.063413 -0.01859,0.014231 -0.0338,0.027807 -0.0338,0.030166 0,0.00786 0.0701,0.0048 0.08862,-0.00381 0.01229,-0.00571 0.02859,-0.00786 0.05545,-0.0072 0.02093,5.174e-4 0.05089,-0.00157 0.06658,-0.00472 0.03068,-0.00604 0.0346,-0.0053 0.180783,0.034629 0.02841,0.00778 0.05893,0.015613 0.06783,0.017443 0.03291,0.00679 0.08318,0.030613 0.09958,0.047195 0.0093,0.0094 0.01821,0.024189 0.0198,0.032874 0.0016,0.00868 0.0058,0.028817 0.0093,0.044745 0.01174,0.052808 0.004,0.1833003 -0.01211,0.2036147 -0.03641,0.045962 -0.159112,0.1565032 -0.188507,0.1698149 -0.03545,0.016068 -0.03942,0.024372 -0.03942,0.08287 0,0.07819 -0.01837,0.1252961 -0.04893,0.1252961 -0.02753,0 -0.03994,-0.029479 -0.04048,-0.096072 -1.7e-4,-0.021516 -0.0027,-0.036466 -0.0062,-0.037567 -0.0058,-0.00174 -0.0619,0.081741 -0.06976,0.1037019 -0.0097,0.027095 -0.04276,0.033759 -0.06583,0.01327 -0.02084,-0.018502 -0.01697,-0.03414 0.0236,-0.095395 0.01395,-0.02106 0.0032,-0.021275 -0.01968,-3.882e-4 -0.01157,0.010588 -0.02594,0.020381 -0.03193,0.021772 -0.01303,0.00306 -0.0722,-0.017848 -0.08183,-0.028867 -0.01034,-0.01183 -0.0081,-0.027252 0.0055,-0.03861 0.01503,-0.012525 0.15417,-0.0704 0.2338,-0.097234 0.03321,-0.011192 0.06794,-0.019711 0.08037,-0.019711 0.01202,0 0.03044,-0.00315 0.04092,-0.00704 0.02481,-0.00921 0.07744,-0.054008 0.11188,-0.09525 0.0366,-0.043834 0.04462,-0.07367 0.03992,-0.1486553 -0.0038,-0.061542 -0.009,-0.081757 -0.02408,-0.093841 -0.0107,-0.00859 -0.04908,-0.019553 -0.09738,-0.027799 -0.03572,-0.00613 -0.04275,-0.00141 -0.04908,0.032675 -0.0059,0.031557 -0.01877,0.05746 -0.03871,0.077618 -0.0089,0.00908 -0.01633,0.019305 -0.01633,0.022716 0,0.00339 -0.01039,0.014802 -0.02311,0.025299 -0.01271,0.010505 -0.0463,0.040432 -0.07463,0.0665 -0.02834,0.026069 -0.06381,0.054745 -0.07883,0.063727 -0.01502,0.00897 -0.03535,0.025017 -0.0452,0.035639 -0.0098,0.010621 -0.02942,0.025133 -0.04349,0.032253 -0.01408,0.00712 -0.03294,0.018875 -0.04191,0.026135 -0.02272,0.018386 -0.116451,0.072105 -0.125802,0.072105 -0.01866,0 -0.11319,0.1079247 -0.109526,0.1250445 9e-4,0.00422 0.0143,0.013709 0.02976,0.021085 0.02229,0.010621 0.02948,0.017128 0.03471,0.031375 0.0036,0.00988 0.01258,0.024347 0.0199,0.032145 0.01181,0.012575 0.01289,0.017078 0.0097,0.039968 -0.0034,0.023875 -0.0024,0.026996 0.01229,0.041905 0.01134,0.011474 0.01702,0.023453 0.01974,0.041665 0.0035,0.023097 0.0067,0.027915 0.03395,0.05006 0.01657,0.013477 0.03357,0.030407 0.03778,0.037634 0.0098,0.016888 0.02171,0.068744 0.0263,0.1148703 0.002,0.01991 0.0071,0.049232 0.01145,0.065159 0.0045,0.016482 0.0089,0.063272 0.01015,0.1085952 0.0013,0.043801 0.0049,0.104923 0.0081,0.1358321 0.0057,0.055614 0.0056,0.056649 -0.01023,0.1004054 -0.0088,0.024314 -0.0167,0.052146 -0.01756,0.061856 -0.0015,0.016739 -2.3e-4,0.018212 0.02426,0.02866 0.02093,0.00892 0.02582,0.01337 0.02582,0.023469 0,0.012765 -0.02322,0.052336 -0.0345,0.058793 -0.0034,0.00199 -0.02341,0.00522 -0.04434,0.0072 -0.02093,0.00199 -0.05029,0.00488 -0.06524,0.00646 -0.02404,0.00248 -0.02999,0.00116 -0.05142,-0.011656 -0.02331,-0.013933 -0.02495,-0.014214 -0.04331,-0.00745 -0.02161,0.00803 -0.0274,0.014189 -0.02752,0.029314 -1.22e-4,0.015712 -0.01006,0.036185 -0.02416,0.049786 -0.01415,0.013651 -0.02485,0.047295 -0.02486,0.078156 -1.1e-5,0.029951 -0.01424,0.09737 -0.02414,0.1143686 -0.01072,0.018411 -0.01202,0.09165 -0.0017,0.094256 0.0037,9.106e-4 0.0171,0.00422 0.02968,0.0072 0.01258,0.00306 0.03334,0.0126 0.04613,0.021259 0.04608,0.031201 0.09852,0.1248615 0.09774,0.1745932 -2.31e-4,0.014678 -0.0037,0.021963 -0.01451,0.0302 -0.0078,0.00596 -0.01691,0.010861 -0.02019,0.010861 -0.01146,0 -0.0464,-0.037766 -0.0498,-0.053851 -0.0069,-0.032576 -0.0667,-0.1295429 -0.07992,-0.1295429 -0.0076,0 -0.0013,0.065515 0.0092,0.096529 0.0091,0.027004 0.0098,0.078115 9.32e-4,0.085912 -0.01304,0.011573 -0.0375,0.00662 -0.05672,-0.011449 -0.01007,-0.00948 -0.01831,-0.019256 -0.01831,-0.021723 0,-0.0093 -0.0118,-0.00389 -0.02863,0.01313 -0.01688,0.017062 -0.04528,0.031367 -0.05954,0.029976 -0.0038,-3.775e-4 -0.0192,-0.00207 -0.03415,-0.00373 z m 0.03515,-0.077345 c 0.0031,-0.00513 0.0056,-0.013312 0.0056,-0.018171 0,-0.00488 0.0048,-0.016938 0.01087,-0.026847 0.01152,-0.019115 0.01403,-0.032484 0.006,-0.032484 -0.0074,0 -0.0386,0.060333 -0.0386,0.074522 0,0.014636 0.0082,0.016176 0.01612,0.00306 z m -0.54692,-0.023213 c 0.0096,-0.016458 0.03067,-0.078819 0.03067,-0.090545 0,-0.00833 -4.38e-4,-0.00833 -0.01088,6.2e-5 -0.006,0.0048 -0.01088,0.010621 -0.01088,0.012914 0,0.00232 -0.006,0.012277 -0.01333,0.022178 -0.01368,0.018477 -0.02471,0.051922 -0.02066,0.062643 0.0039,0.010389 0.01708,0.00662 0.02509,-0.0072 z M 13.27781,6.3582673 c 0.0047,-0.00902 0.0047,-0.015108 0,-0.024132 -0.008,-0.015547 -0.01907,-0.015332 -0.03083,5.927e-4 -0.0074,0.010017 -0.0081,0.015067 -0.0035,0.024132 0.0078,0.015249 0.02632,0.014926 0.03429,-5.927e-4 z m 0.736929,-1.7329468 c 0.02757,-0.012194 0.07342,-0.049687 0.08666,-0.07083 0.0094,-0.015017 0.0089,-0.033254 -0.0012,-0.046094 -0.0063,-0.00795 -0.01397,-0.010712 -0.02985,-0.010712 -0.01889,0 -0.02291,0.00215 -0.03462,0.018635 -0.0073,0.010249 -0.0245,0.02491 -0.03824,0.032576 -0.01595,0.0089 -0.02889,0.021052 -0.03575,0.033569 -0.0106,0.019338 -0.01421,0.04568 -0.0072,0.051972 0.0076,0.00671 0.03327,0.00281 0.06013,-0.0091 z m -0.989512,-0.021358 c 0.0247,-0.010174 0.03443,-0.016921 0.03619,-0.025108 0.0013,-0.00613 0.0051,-0.022799 0.0084,-0.036971 0.0033,-0.014181 0.0047,-0.027691 0.003,-0.030034 -0.0016,-0.00232 -0.01269,-0.00662 -0.02456,-0.00942 -0.01187,-0.00281 -0.03387,-0.014843 -0.04888,-0.026681 -0.01501,-0.01183 -0.02904,-0.021433 -0.03118,-0.021325 -0.0021,1.027e-4 -0.01736,0.00728 -0.0338,0.015953 -0.03187,0.016797 -0.04621,0.03539 -0.05169,0.066981 -0.0017,0.00988 -0.0091,0.024305 -0.01649,0.032071 -0.01854,0.019562 -0.01694,0.028784 0.0065,0.037476 0.05247,0.019462 0.100409,0.018544 0.152535,-0.0029 z"
     inkscape:connector-curvature="0"
     style="fill:#000000"
     id="path3046" />
  <g
     transform="matrix(0.00417628,0,0,0.00448516,13.774581,5.9123164)"
     id="g3824">
    <path
       inkscape:connector-curvature="0"
       style="fill:#000000"
       sodipodi:nodetypes="aaaaa"
       d="m 1069.5,996.5 c -0.9843,-1.4349 0.3256,-3.716 1.5,-5 1.8173,-1.9868 5.5083,-4.8119 7.5,-3 2.1846,1.9874 -0.069,6.8227 -2.5,8.5 -1.7886,1.2342 -5.2707,1.2919 -6.5,-0.5 z"
       id="path3761" />
    <path
       inkscape:connector-curvature="0"
       style="fill:#000000"
       sodipodi:nodetypes="aaaaaa"
       d="m 1036,984.5 c 1.6402,-0.83587 4.1983,-1.8017 5.5,-0.5 1.3017,1.3017 0.6001,4.024 -0.5,5.5 -1.0727,1.4393 -3.229,2.2932 -5,2 -1.516,-0.25096 -3.39,-1.4674 -3.5,-3 -0.1269,-1.7671 1.9215,-3.1956 3.5,-4 z"
       id="path3763" />
    <path
       d="m 1267.2,860.22 c -11.331,0.03 -22.537,1.5651 -33.75,3.2812 -11.568,1.7704 -23.185,4.9738 -33.5,10.5 -26.638,14.271 -45.43,34.442 -70.5,57 -25.62,23.053 -18.404,7.0808 -33,5.5 -13.228,-1.4326 -33.189,2.8192 -45.5,9 -39.132,19.647 -37.222,14.231 -40,0 -4.6953,-23.461 -9.7428,-35.32 -31,-52 -7.9869,-2.9132 -17.323,-8.338 -28.5,-0.5 -18.001,12.623 -24.999,13.18 -35.5,22 -13.575,11.401 -1.2834,36.314 15,19.5 8.5223,-8.8 12.882,-13.459 25,-24.5 3.1191,-2.8419 9.1594,-4.511 12.5,2 7.4983,14.615 14.832,28.311 19.5,43.5 3.0788,10.018 4.1853,16.693 -0.15625,23.031 -39.707,57.967 -59.058,123.21 -103.97,175.37 -6.9953,8.1248 -17.217,13.033 -26.875,17.688 -12.288,5.9219 -25.576,9.6848 -38.875,12.719 -44.567,10.167 -92.899,2.6903 -135.94,18.094 -9.8593,3.5288 -19.086,9.3598 -26.688,16.563 -22.734,21.543 -35.395,51.685 -53.75,77.062 -5.5254,7.6394 -10.674,15.606 -16.969,22.625 -12.047,11.526 -22.875,22.732 -35.344,31.844 -9.9129,7.1773 -19.076,10.58 -31.25,19.281 -4.8851,3.4915 -2.4977,9.0296 -0.59375,7.5626 16.224,-12.502 34.281,-22.5 34.281,-22.5 0,0 -17.814,19.43 -28.25,27.312 -8.068,6.0945 -2.0226,11.364 0.34375,9.3438 11.008,-9.398 13.462,-13.302 23.344,-20.5 4.7411,-3.4536 11.844,-3.4664 4.2188,3.5312 -10.459,9.5979 -17.463,20.612 -25.438,31.094 -4.0054,5.2647 0.33849,13.945 7.0625,4.9688 16.615,-24.83 26.557,-43.979 41.094,-46.844 0,0 -8.0502,10.323 -9.7812,16.469 -1.4028,4.9802 -4.2985,12.389 -0.1875,15.531 4.6086,3.522 12.755,-0.5776 16.719,-4.8125 7.1222,-7.6097 1.9918,-18.512 6.5938,-30.562 0.76149,-1.9939 6.0748,-8.3007 6.375,-0.6875 0.22675,5.7503 -1.3415,8.3196 1.4062,10.594 3.2734,2.7093 9.0752,1.4147 12.75,-0.7187 4.1275,-2.3962 6.3983,-7.4228 7.75,-12 2.6702,-9.042 -10.978,-4.8516 0,-28.281 15.372,-32.808 30.314,-60.082 50.219,-89.094 5.1937,-7.5699 14.88,-12.708 24.031,-13.438 37.209,-2.9678 66.491,-9.1653 116.69,-18.406 4.7788,-0.8798 15.916,2.2919 9.1875,11.312 -24.537,32.894 -30.581,63.461 -49.812,92.844 -7.8376,11.975 -16.937,23.159 -26.562,33.75 -7.3052,8.0377 -17.606,13.386 -23.562,22.469 -8.1637,14.036 -10.365,26.236 -17.531,39.281 -28.678,36.946 -54.194,67.938 -80.531,107.94 -4.2931,6.5202 -14.261,6.6205 -20.5,11.312 -7.4595,5.6096 -15.304,11.623 -19.781,19.812 -3.7041,6.7743 -5.7628,14.945 -4.9688,22.625 0.77041,7.451 3.8207,15.274 9.1875,20.5 6.586,6.4129 16.326,11.577 25.469,10.625 9.1038,-0.9479 16.746,-8.5476 22.625,-15.562 5.4883,-6.5482 8.7747,-14.996 10.594,-23.344 1.4492,-6.6506 2.8166,-17.28 0.0625,-20.406 -7.4716,-8.48 -5.9136,-14.551 -2.1562,-19.188 28.943,-35.712 57.842,-68.166 85.531,-103.25 16.58,-21.008 26.691,-18.987 37.594,-22.5 23.178,-7.4684 32.582,-10.265 61.406,-15.688 5.7538,-1.0824 12.532,7.7111 11.312,13.438 -9.3494,43.913 -20.629,68.366 -34.75,112.09 -2.0125,6.2321 3.7747,12.248 -15.406,22.469 -9.6828,5.1598 -21.259,6.5196 -30.438,12.531 -8.7847,5.7539 -16.178,11.005 -22.625,21.906 -5.2684,8.9081 3.1086,31.209 15.562,26.875 6.6289,-2.3068 15.189,-3.2812 19.062,-9.1875 6.2728,-9.5647 8.7257,-13.88 14.875,-19.094 16.973,-14.392 40.939,-21.072 58.688,-31.812 6.93,-4.1937 17.63,-24.152 3.5312,-24.031 -11.789,0.1012 -5.9635,-16.628 -2.75,-24 14.185,-32.543 30.341,-68.839 40.219,-106.12 3.0779,-11.618 9.5164,-22.144 15.562,-32.531 20.474,-35.173 43.439,-70.309 69.75,-100.19 25.874,-29.383 42.34205,-53.84 65.31305,-87.906 8.0236,-11.9 7.3623,-9.5614 17.656,-10.594 42.559,-4.2679 73.12,-3.8147 118.81,-11.313 4.0016,-0.6566 8.4414,6.0927 7.0625,9.9063 -8.4607,23.399 -12.952,40.378 -23.344,58.688 -4.3982,7.7488 -10.675,14.268 -16.25,21.219 -9.073,12.552 -19.029,24.216 -33.687,28.687 -7.096,4.3696 -11.897,8.8207 -17.938,13.031 -5.6234,3.9197 -4.5534,17.282 3.5313,11.312 12.822,-9.4667 29,-16.969 29,-16.969 0,0 -11.754,15.952 -16.25,23.313 -1.2286,2.0115 -0.3811,8.0366 4.1563,2.25 9.9001,-12.626 16.256,-21.905 26.844,-32.531 1.4214,-1.4265 10.746,-2.0885 7.1875,4.125 -6.5213,11.389 -13.066,17.649 -14.156,29.688 -0.289,3.1928 7.8555,8.4398 9.1874,2.8438 4.3189,-18.145 5.3859,-20.486 11.313,-29 4.8883,-6.9719 8.6047,-8.1187 12.031,0.7187 1.5915,4.186 0.4866,8.5395 0,13.438 -0.4788,4.8199 7.1265,7.0554 7.0625,0.6875 -0.086,-8.5858 -1.0847,-15.674 2.8437,-21.906 6.8579,-13.449 5.725,-10.809 13.656,-5.3437 10.332,7.1197 12.225,-2.3351 8.25,-5.25 -3.6314,-2.6629 -7.5833,-5.3611 -9.9063,-9.2187 -4.0367,-6.7039 -8.4387,-16.772 -6.0624,-22.656 13.31,-32.962 26.611,-62.616 43.562,-93.312 5.5841,-10.112 11.952,-14.301 -7.0937,-13.406 -54.224,2.5469 -108.14,12.045 -164.03,18.375 -6.917,0.7834 -22.509,9.6805 -13.906,-15.594 8.0735,-23.719 16.814,-43.522 30,-62.5 14.483,-20.844 18.359,-18.708 31.5,-23.5 7.984,-2.9116 13.013,-10.968 19,-17 13.604,-14.105 30.897,-21.131 29.5,-49 -0.2003,-3.995 -7.0703,-3.9351 0,-12 19.038,-21.716 41.188,-36.929 63,-54 7.8498,-6.1434 18.256,-8.3996 28,-10.5 14.858,-3.2028 30.043,-4.2324 45.5,-3 8.5087,0.67839 14.806,5.9515 12.5,11 -8.015,17.546 -17.972,31.208 -28,46.5 -2.6616,4.0585 -7.6491,1.2067 -11,3 -6.0409,3.233 -12.035,7.5894 -15.5,13.5 -3.7033,6.3164 -6.4602,14.445 -4.5,21.5 1.7049,6.1359 6.7593,12.732 13,14 5.1906,1.0549 10.57,-2.9484 14.5,-6.5 4.7084,-4.2554 7.5245,-10.469 9.5,-16.5 1.8791,-5.737 -1.4622,-13.055 2,-18 11.728,-16.752 21.424,-33.362 32.5,-53.5 3.8962,-7.0838 0.9148,-24.12 -8,-26.5 -9.0519,-2.4168 -17.937,-3.3046 -26.75,-3.2812 z m -175.12,102.06 c 6.3671,0.0601 11.34,3.6444 14.375,8.7188 6.1615,10.3 1.8557,15.352 -15.5,32.5 -5.7007,5.6324 -9.4365,18.227 -26,10.5 -8.3743,-3.9065 -8.985,-13.6 -3.5,-27.5 2.6561,-6.731 7.8848,-12.436 13.5,-17 6.3754,-5.1818 12.173,-7.2655 17.125,-7.2188 z m -43.6,4.84 c 3.0179,0.0542 5.4443,1.5743 6,5.875 0.7399,7.3452 -5.2324,14.328 -10.5,19.5 -4.4145,4.3347 -9.4282,5.1881 -16.5,8.5 -4.1747,1.9551 -14.476,1.1646 -9,-10.5 3.837,-8.1727 12.266,-16.335 20.5,-20.5 2.8726,-1.5175 6.4821,-2.9292 9.5,-2.875 z"
       inkscape:connector-curvature="0"
       style="fill:#000000"
       id="path3777" />
  </g>
  <path
     d="m 9.6333708,12.354504 c -0.050565,8.6e-5 -0.1029874,0.0096 -0.1425137,0.03698 -0.044887,0.03101 -0.083626,0.08441 -0.082228,0.136773 0.00188,0.07037 0.069628,0.12648 0.1201794,0.1784 0.030468,0.03129 0.1075288,0.0773 0.1075288,0.0773 0,0 -0.066554,0.143921 -0.1075288,0.225974 -0.020627,0.04131 -0.098781,0.0184 -0.1454804,0.0059 -0.068635,-0.01831 -0.1108686,-0.08806 -0.1771064,-0.112988 -0.083348,-0.03135 -0.1782386,-0.06082 -0.2656597,-0.04163 -0.06325,0.01389 -0.1125575,0.06353 -0.1581308,0.10704 -0.059507,0.05681 -0.1192052,0.120432 -0.1454803,0.19624 -0.030706,0.0886 -0.021161,0.187357 -0.00633,0.279495 0.015967,0.09916 0.1012037,0.28544 0.1012037,0.28544 l 0.1454803,-0.02974 c 0,0 -0.078781,-0.14642 -0.094878,-0.225975 -0.011427,-0.05647 -0.00909,-0.115609 0,-0.172453 0.00853,-0.05332 0.010696,-0.115883 0.050602,-0.154614 0.054278,-0.05268 0.1441394,-0.06111 0.2213832,-0.07136 0.041806,-0.0055 0.085062,-0.0017 0.1265044,0.0059 0.050396,0.0092 0.1019818,0.02193 0.1454805,0.04758 0.042945,0.02532 0.080425,0.06082 0.1075288,0.101093 0.050283,0.0747 0.045523,0.174511 0.094878,0.249761 0.033658,0.05132 0.095587,0.08175 0.1328299,0.130826 0.039984,0.05269 0.056496,0.118732 0.094878,0.172454 0.041696,0.05837 0.096985,0.107041 0.1454803,0.16056 0.048494,0.05352 0.11658,0.09571 0.14548,0.16056 0.02781,0.0624 0.02433,0.134717 0.01897,0.202188 -0.0047,0.05897 -0.01257,0.121384 -0.04428,0.172453 -0.02181,0.03513 -0.073809,0.04773 -0.094878,0.08325 -0.041884,0.07062 -0.060277,0.157522 -0.050602,0.237867 0.026009,0.21599 0.3053507,0.378173 0.2846357,0.594669 -0.0037,0.03833 -0.03279,0.07827 -0.06958,0.09514 -0.06264,0.02874 -0.1525206,-0.05064 -0.2087329,-0.0119 -0.042065,0.02899 -0.059746,0.09817 -0.037952,0.14272 0.01576,0.03222 0.063582,0.04506 0.1012037,0.04758 0.046553,0.0031 0.086491,-0.0364 0.1328302,-0.04163 0.05042,-0.0057 0.102038,0.02136 0.151805,0.01189 0.04899,-0.0093 0.09856,-0.03121 0.13283,-0.06541 0.0317,-0.03165 0.0616,-0.07569 0.05692,-0.118934 -0.0047,-0.04378 -0.05187,-0.07353 -0.08223,-0.10704 -0.02513,-0.02775 -0.06367,-0.04531 -0.08223,-0.0773 -0.11462,-0.197645 -0.225128,-0.445782 -0.151806,-0.660083 0.03657,-0.106879 0.151173,-0.19404 0.26566,-0.225974 0.05118,-0.01427 0.107681,0.0074 0.158131,0.02379 0.08207,0.02668 0.156714,0.07193 0.227709,0.118935 0.130704,0.08654 0.262876,0.178341 0.360538,0.297333 0.0432,0.05264 0.07259,0.1153 0.09488,0.178401 0.02633,0.07454 0.0087,0.160815 0.04428,0.23192 0.02225,0.04457 0.05508,0.08968 0.101204,0.112987 0.129003,0.06519 0.293282,0.07661 0.436441,0.04758 0.03606,-0.0074 0.08635,-0.01979 0.09488,-0.05352 0.01096,-0.04334 -0.03734,-0.08711 -0.07591,-0.112988 -0.06701,-0.04497 -0.168459,-0.0158 -0.240358,-0.05352 -0.04686,-0.02459 -0.08803,-0.0628 -0.113855,-0.10704 -0.03741,-0.06408 -0.02243,-0.145944 -0.0506,-0.214081 -0.05201,-0.125733 -0.123598,-0.24673 -0.215054,-0.350779 -0.117125,-0.133253 -0.296237,-0.20899 -0.417466,-0.338961 -0.05822,-0.06242 -0.113892,-0.130612 -0.14548,-0.208134 -0.02518,-0.06178 -0.03539,-0.130172 -0.03163,-0.19624 0.0044,-0.07778 0.04682,-0.14963 0.06325,-0.225973 0.0088,-0.04121 0.02269,-0.08297 0.01897,-0.124881 -0.0081,-0.09122 -0.105885,-0.171591 -0.08855,-0.261654 0.0067,-0.03472 0.03986,-0.06168 0.06958,-0.08325 0.04185,-0.03038 0.103993,-0.02865 0.14548,-0.05947 0.04135,-0.03072 0.07744,-0.07217 0.09488,-0.118933 0.02234,-0.05988 0.02055,-0.128258 0.0063,-0.190295 -0.02624,-0.11439 -0.164455,-0.315174 -0.164455,-0.315174 l -0.177107,0.06542 c 0,0 0.126479,0.164872 0.139155,0.261654 0.0047,0.03628 -0.007,0.07483 -0.0253,0.10704 -0.0345,0.06055 -0.08921,0.113226 -0.151805,0.148668 -0.0263,0.01488 -0.05786,0.02424 -0.08855,0.02379 -0.05533,-8.11e-4 -0.10319,-0.0413 -0.158131,-0.04758 -0.09231,-0.01053 -0.188106,0.03907 -0.27831,0.01784 -0.03859,-0.0091 -0.073916,-0.03225 -0.1012035,-0.05946 -0.036238,-0.03615 -0.075903,-0.130828 -0.075903,-0.130828 0,0 0.07021,-0.048 0.088553,-0.08325 0.014936,-0.02871 0.0171,-0.06346 0.01265,-0.09514 -0.00805,-0.05729 -0.025973,-0.119825 -0.069577,-0.16056 -0.048325,-0.04514 -0.1218745,-0.06594 -0.1897569,-0.07135 -0.01128,-9.04e-4 -0.022923,-0.0013 -0.034592,-0.0013 z m 0.5432112,0.785736 c 0.0033,6e-5 0.0067,2.25e-4 0.01008,5.58e-4 0.04791,0.0047 0.09618,0.02413 0.132829,0.05352 0.03605,0.02891 0.06219,0.07035 0.0759,0.112988 0.02563,0.07972 0.01486,0.16687 0.0063,0.24976 -0.01228,0.119201 -0.02327,0.244693 -0.08223,0.350853 -0.01726,0.03109 -0.03948,0.06975 -0.0759,0.0773 -0.03785,0.0079 -0.07514,-0.0216 -0.107529,-0.04163 -0.09838,-0.06085 -0.1823232,-0.143309 -0.2529697,-0.23192 -0.09164,-0.114949 -0.2115474,-0.23697 -0.2150579,-0.380588 -0.00102,-0.04167 0.025919,-0.0832 0.056928,-0.112987 0.029682,-0.0285 0.072398,-0.04501 0.113854,-0.05352 0.061828,-0.01271 0.1266818,0.01082 0.1897566,0.0059 0.05022,-0.0038 0.09819,-0.0312 0.148049,-0.03029 z"
     inkscape:connector-curvature="0"
     style="fill:#000000"
     id="path3779" />
</svg>
