<?xml version="1.0" encoding="UTF-8" standalone="no"?>
<!-- Created by diasvg.py -->

<svg
   xmlns:dc="http://purl.org/dc/elements/1.1/"
   xmlns:cc="http://creativecommons.org/ns#"
   xmlns:rdf="http://www.w3.org/1999/02/22-rdf-syntax-ns#"
   xmlns:svg="http://www.w3.org/2000/svg"
   xmlns="http://www.w3.org/2000/svg"
   xmlns:sodipodi="http://sodipodi.sourceforge.net/DTD/sodipodi-0.dtd"
   xmlns:inkscape="http://www.inkscape.org/namespaces/inkscape"
   width="1806.2203"
   height="1083.5859"
   viewBox="4.232 -6.61 54.906251 24.45848"
   id="svg2"
   version="1.1"
   inkscape:version="0.48.4 r9939"
   sodipodi:docname="scale_2.svg">
  <metadata
     id="metadata78">
    <rdf:RDF>
      <cc:Work
         rdf:about="">
        <dc:format>image/svg+xml</dc:format>
        <dc:type
           rdf:resource="http://purl.org/dc/dcmitype/StillImage" />
      </cc:Work>
    </rdf:RDF>
  </metadata>
  <defs
     id="defs76" />
  <sodipodi:namedview
     pagecolor="#ffffff"
     bordercolor="#666666"
     borderopacity="1"
     objecttolerance="10"
     gridtolerance="10"
     guidetolerance="10"
     inkscape:pageopacity="0"
     inkscape:pageshadow="2"
     inkscape:window-width="1637"
     inkscape:window-height="853"
     id="namedview74"
     showgrid="false"
     fit-margin-top="0"
     fit-margin-left="0"
     fit-margin-right="0"
     fit-margin-bottom="0"
     inkscape:zoom="0.47124133"
     inkscape:cx="506.41633"
     inkscape:cy="567.68633"
     inkscape:window-x="1242"
     inkscape:window-y="439"
     inkscape:window-maximized="0"
     inkscape:current-layer="svg2" />
  <ellipse
     cx="12.646"
     cy="11.724"
     rx="8.3640003"
     ry="8.276"
     id="ellipse4"
     sodipodi:cx="12.646"
     sodipodi:cy="11.724"
     sodipodi:rx="8.3640003"
     sodipodi:ry="8.276"
     style="fill:#dddddd;stroke:none;fill-opacity:1;opacity:0.3"
     transform="translate(0.01325,-4.2508425)" />
  <ellipse
     cx="12.646"
     cy="11.724"
     rx="8.3640003"
     ry="8.276"
     id="ellipse6"
     sodipodi:cx="12.646"
     sodipodi:cy="11.724"
     sodipodi:rx="8.3640003"
     sodipodi:ry="8.276"
     style="fill:none;stroke:#000000;stroke-width:0.1;stroke-dasharray:0.1, 0.1"
     transform="translate(0.01325,-4.2508425)" />
  <ellipse
     cx="28.226"
     cy="1.569"
     rx="7.868"
     ry="7.4419999"
     id="ellipse8"
     sodipodi:cx="28.226"
     sodipodi:cy="1.569"
     sodipodi:rx="7.868"
     sodipodi:ry="7.4419999"
     style="fill:#dddddd;stroke:none;opacity:0.3;fill-opacity:1"
     transform="translate(0.01325,-4.2508425)" />
  <ellipse
     cx="28.226"
     cy="1.569"
     rx="7.868"
     ry="7.4419999"
     id="ellipse10"
     sodipodi:cx="28.226"
     sodipodi:cy="1.569"
     sodipodi:rx="7.868"
     sodipodi:ry="7.4419999"
     style="fill:none;stroke:#000000;stroke-width:0.1;stroke-dasharray:0.1, 0.1"
     transform="translate(0.01325,-4.2508425)" />
  <ellipse
     cx="23.049"
     cy="9.2480001"
     rx="8.3219995"
     ry="8.6429996"
     id="ellipse12"
     sodipodi:cx="23.049"
     sodipodi:cy="9.2480001"
     sodipodi:rx="8.3219995"
     sodipodi:ry="8.6429996"
     style="fill:none;stroke:#000000;stroke-width:0.2;stroke-dasharray:0.1, 0.1"
     transform="translate(0.01325,-4.2508425)" />
  <ellipse
     cx="45.887001"
     cy="16.806"
     rx="7.868"
     ry="7.4419999"
     id="ellipse14"
     sodipodi:cx="45.887001"
     sodipodi:cy="16.806"
     sodipodi:rx="7.868"
     sodipodi:ry="7.4419999"
     style="fill:#dddddd;stroke:none;fill-opacity:1;opacity:0.3"
     transform="translate(0.01325,-4.2508425)" />
  <ellipse
     cx="45.887001"
     cy="16.806"
     rx="7.868"
     ry="7.4419999"
     id="ellipse16"
     sodipodi:cx="45.887001"
     sodipodi:cy="16.806"
     sodipodi:rx="7.868"
     sodipodi:ry="7.4419999"
     style="fill:none;stroke:#000000;stroke-width:0.1;stroke-dasharray:0.1, 0.1"
     transform="translate(0.01325,-4.2508425)" />
  <path
     d="m 29.60325,11.003158 a 6.038,6.038 0 0 0 4.444,-7.8040005"
     id="path18"
     inkscape:connector-curvature="0"
     style="fill:none;stroke:#000000;stroke-width:0.15000001;stroke-dasharray:0.1, 0.1" />
  <polygon
     points="29.572,15.041 29.101,15.342 29.624,15.539 "
     id="polygon20"
     style="fill:#ffffff;stroke:none"
     transform="translate(0.01325,-4.2508425)" />
  <polygon
     points="29.572,15.041 29.101,15.342 29.624,15.539 "
     id="polygon22"
     style="fill:none;stroke:#000000;stroke-width:0.15000001"
     transform="translate(0.01325,-4.2508425)" />
  <polygon
     points="34.296,7.334 33.86,6.984 33.842,7.542 "
     id="polygon24"
     style="fill:#ffffff;stroke:none"
     transform="translate(0.01325,-4.2508425)" />
  <polygon
     points="34.296,7.334 33.86,6.984 33.842,7.542 "
     id="polygon26"
     style="fill:none;stroke:#000000;stroke-width:0.15000001"
     transform="translate(0.01325,-4.2508425)" />
  <path
     d="m 7.27925,13.725158 a 42.862,42.862 0 0 0 37.985,6.472"
     id="path28"
     inkscape:connector-curvature="0"
     style="fill:none;stroke:#000000;stroke-width:0.15000001;stroke-dasharray:0.1, 0.1" />
  <polygon
     points="7.414,17.782 6.865,17.678 7.112,18.18 "
     id="polygon30"
     style="fill:#ffffff;stroke:none"
     transform="translate(0.01325,-4.2508425)" />
  <polygon
     points="7.414,17.782 6.865,17.678 7.112,18.18 "
     id="polygon32"
     style="fill:none;stroke:#000000;stroke-width:0.15000001"
     transform="translate(0.01325,-4.2508425)" />
  <polygon
     points="45.329,24.691 45.728,24.299 45.175,24.215 "
     id="polygon34"
     style="fill:#ffffff;stroke:none"
     transform="translate(0.01325,-4.2508425)" />
  <polygon
     points="45.329,24.691 45.728,24.299 45.175,24.215 "
     id="polygon36"
     style="fill:none;stroke:#000000;stroke-width:0.15000001"
     transform="translate(0.01325,-4.2508425)" />
  <path
     d="m 25.81825,-10.481842 c 4.526,-3.163 32.443,21.537 27.208,26.717 -5.234,5.18 -8.779,-5.18 -13.522,-9.9240005 -4.744,-4.743 -18.212,-13.631 -13.686,-16.7929995"
     id="path38"
     inkscape:connector-curvature="0"
     style="fill:none;stroke:#000000;stroke-width:0.2;stroke-dasharray:0.1, 0.1" />
  <polygon
     points="27.152,19.389 26.626,19.579 27.093,19.886 "
     id="polygon42"
     style="fill:#ffffff;stroke:none"
     transform="translate(0.01325,-4.2508425)" />
  <polygon
     points="39.571,11.271 39.45,10.725 39.086,11.15 "
     id="polygon46"
     style="fill:#ffffff;stroke:none"
     transform="translate(0.01325,-4.2508425)" />
  <ellipse
     cx="51.175999"
     cy="0.61199999"
     rx="7.8889999"
     ry="5.0430002"
     id="ellipse50"
     sodipodi:cx="51.175999"
     sodipodi:cy="0.61199999"
     sodipodi:rx="7.8889999"
     sodipodi:ry="5.0430002"
     style="fill:#dddddd;stroke:none;fill-opacity:1;opacity:0.3"
     transform="translate(0.01325,-4.2508425)" />
  <ellipse
     cx="51.175999"
     cy="0.61199999"
     rx="7.8889999"
     ry="5.0430002"
     id="ellipse52"
     sodipodi:cx="51.175999"
     sodipodi:cy="0.61199999"
     sodipodi:rx="7.8889999"
     sodipodi:ry="5.0430002"
     style="fill:none;stroke:#000000;stroke-width:0.1;stroke-dasharray:0.1, 0.1"
     transform="translate(0.01325,-4.2508425)" />
  <path
     d="m 22.01525,-8.0298425 a 8.686,8.686 0 0 0 -9.222,6.575"
     id="path54"
     inkscape:connector-curvature="0"
     style="fill:none;stroke:#000000;stroke-width:0.15000001;stroke-dasharray:0.1, 0.1" />
  <polygon
     points="21.963,-3.558 22.498,-3.721 22.046,-4.051 "
     id="polygon56"
     style="fill:#ffffff;stroke:none"
     transform="translate(0.01325,-4.2508425)" />
  <polygon
     points="21.963,-3.558 22.498,-3.721 22.046,-4.051 "
     id="polygon58"
     style="fill:none;stroke:#000000;stroke-width:0.15000001"
     transform="translate(0.01325,-4.2508425)" />
  <polygon
     points="12.508,2.749 12.673,3.283 13.002,2.831 "
     id="polygon60"
     style="fill:#ffffff;stroke:none"
     transform="translate(0.01325,-4.2508425)" />
  <polygon
     points="12.508,2.749 12.673,3.283 13.002,2.831 "
     id="polygon62"
     style="fill:none;stroke:#000000;stroke-width:0.15000001"
     transform="translate(0.01325,-4.2508425)" />
  <path
     d="m 13.16525,16.180158 a 6.496,6.496 0 0 0 9.599,-1.946"
     id="path64"
     inkscape:connector-curvature="0"
     style="fill:none;stroke:#000000;stroke-width:0.15000001;stroke-dasharray:0.1, 0.1" />
  <polygon
     points="13.303,20.277 12.768,20.115 12.96,20.64 "
     id="polygon66"
     style="fill:#ffffff;stroke:none"
     transform="translate(0.01325,-4.2508425)" />
  <polygon
     points="13.303,20.277 12.768,20.115 12.96,20.64 "
     id="polygon68"
     style="fill:none;stroke:#000000;stroke-width:0.15000001"
     transform="translate(0.01325,-4.2508425)" />
  <polygon
     points="23.009,18.603 22.982,18.045 22.552,18.402 "
     id="polygon70"
     style="fill:#ffffff;stroke:none"
     transform="translate(0.01325,-4.2508425)" />
  <polygon
     points="23.009,18.603 22.982,18.045 22.552,18.402 "
     id="polygon72"
     style="fill:none;stroke:#000000;stroke-width:0.15000001"
     transform="translate(0.01325,-4.2508425)" />
</svg>
